<svg xmlns="http://www.w3.org/2000/svg" width="24" height="24" viewBox="0 0 24 24"><path d="M10.569 0C4.741 0 0 4.741 0 10.569c0 5.827 4.741 10.569 10.569 10.569 5.827 0 10.569-4.742 10.569-10.569C21.139 4.741 16.396 0 10.569 0zm0 19.188c-4.752 0-8.618-3.867-8.618-8.618 0-4.752 3.866-8.618 8.618-8.618 4.751 0 8.618 3.866 8.618 8.618.001 4.75-3.867 8.618-8.618 8.618z"/><path d="M23.715 22.334l-5.594-5.593a.974.974 0 00-1.38 0 .974.974 0 000 1.38l5.593 5.594a.979.979 0 001.38 0 .976.976 0 00.001-1.381z"/></svg>